# xmcd CD database file
#
# Track frame offsets:
#	150
#	1961
#	9786
#	41107
#	47576
#	118355
#	147180
#	155434
#	187785
#	271691
#	304071
#	317546
#
# Disc length: 4353 seconds
#
# Revision: 6
# Processed by: cddbd v1.4PL0 Copyright (c) Steve Scherf et al.
# Submitted via: CDex 1.40Release
#
DISCID=8e10ff0c
DTITLE=Roider Jackl - 04. Die späten Jahre 1965-1975
DYEAR=1900
DGENRE=
TTITLE0=Einleitungsgstanzl (1973) (Roider Jackl)
TTITLE1=Am Keilberg - Walzer (1954) (Blaskapelle Otto Ebner/Werner Roider)
TTITLE2=Gstanzlfolge (Auswahl aus 1965/66) (Roider Jackl)
TTITLE3=Mein politisches Bekenntnis - Lied (1965) (Roider Jackl)
TTITLE4=Vorlesung in Weihenstefphan (Ausschnitt v. 22.2.1968) (Roider Jackl)
TTITLE5=Gstanzlfolge (Auswahl aus 1968/69) (Roider Jackl)
TTITLE6=SPD Song (1970) (Roider Jackl)
TTITLE7=Gstanzlfolge (Auswahl aus 1970/71/72) (Roider Jackl)
TTITLE8=Rede in Endlhausen/Obb. (Ausschnitt v. 5.2.1970) (Roider Jackl)
TTITLE9=Gstanzlfolge (Auswahl aus 1973/74) (Roider Jackl)
TTITLE10=Europa bye bye - Lied (1974) (Roider Jackl)
TTITLE11=Hurraxdax - Galopp (1955) (Blaskapelle Otto Ebner)
EXTD=
EXTT0=
EXTT1=
EXTT2=
EXTT3=
EXTT4=
EXTT5=
EXTT6=
EXTT7=
EXTT8=
EXTT9=
EXTT10=
EXTT11=
PLAYORDER=
